<?xml version="1.0" encoding="UTF-8" standalone="no"?>
<!-- Created with Inkscape (http://www.inkscape.org/) -->

<svg
   width="76.211304mm"
   height="18.731794mm"
   viewBox="0 0 76.211304 18.731795"
   version="1.1"
   id="svg1"
   xml:space="preserve"
   xmlns="http://www.w3.org/2000/svg"
   xmlns:svg="http://www.w3.org/2000/svg"><defs
     id="defs1"><clipPath
       clipPathUnits="userSpaceOnUse"
       id="clipPath5043"><path
         d="M 0,0 H 400 V 534 H 0 Z"
         transform="translate(-2.5000001e-5)"
         id="path5043" /></clipPath><clipPath
       clipPathUnits="userSpaceOnUse"
       id="clipPath5045"><path
         d="M 0,0 H 400 V 534 H 0 Z"
         transform="translate(-2.5000001e-5)"
         id="path5045" /></clipPath><clipPath
       clipPathUnits="userSpaceOnUse"
       id="clipPath5047"><path
         d="M 0,0 H 400 V 534 H 0 Z"
         transform="translate(-2.5000001e-5)"
         id="path5047" /></clipPath><clipPath
       clipPathUnits="userSpaceOnUse"
       id="clipPath5049"><path
         d="M 0,0 H 400 V 534 H 0 Z"
         transform="translate(-2.5000001e-5)"
         id="path5049" /></clipPath><clipPath
       clipPathUnits="userSpaceOnUse"
       id="clipPath5051"><path
         d="M 0,0 H 400 V 534 H 0 Z"
         transform="translate(-2.5000001e-5)"
         id="path5051" /></clipPath><clipPath
       clipPathUnits="userSpaceOnUse"
       id="clipPath5053"><path
         d="M 0,0 H 400 V 534 H 0 Z"
         transform="translate(-2.5000001e-5)"
         id="path5053" /></clipPath><clipPath
       clipPathUnits="userSpaceOnUse"
       id="clipPath5055"><path
         d="M 0,0 H 400 V 534 H 0 Z"
         transform="translate(-2.5000001e-5)"
         id="path5055" /></clipPath><clipPath
       clipPathUnits="userSpaceOnUse"
       id="clipPath5057"><path
         d="M 0,0 H 400 V 534 H 0 Z"
         transform="translate(-2.5000001e-5)"
         id="path5057" /></clipPath><clipPath
       clipPathUnits="userSpaceOnUse"
       id="clipPath5059"><path
         d="M 0,0 H 400 V 534 H 0 Z"
         transform="translate(-2.5000001e-5)"
         id="path5059" /></clipPath><clipPath
       clipPathUnits="userSpaceOnUse"
       id="clipPath5061"><path
         d="M 0,0 H 400 V 534 H 0 Z"
         transform="translate(-2.5000001e-5)"
         id="path5061" /></clipPath><clipPath
       clipPathUnits="userSpaceOnUse"
       id="clipPath5063"><path
         d="M 0,0 H 400 V 534 H 0 Z"
         transform="translate(-2.5000001e-5)"
         id="path5063" /></clipPath><clipPath
       clipPathUnits="userSpaceOnUse"
       id="clipPath5065"><path
         d="M 0,0 H 400 V 534 H 0 Z"
         transform="translate(-2.5000001e-5)"
         id="path5065" /></clipPath><clipPath
       clipPathUnits="userSpaceOnUse"
       id="clipPath5067"><path
         d="M 0,0 H 400 V 534 H 0 Z"
         transform="translate(-2.5000001e-5)"
         id="path5067" /></clipPath><clipPath
       clipPathUnits="userSpaceOnUse"
       id="clipPath5069"><path
         d="M 0,0 H 400 V 534 H 0 Z"
         transform="translate(-2.5000001e-5)"
         id="path5069" /></clipPath></defs><g
     id="g5043"
     transform="matrix(0.26458333,0,0,0.26458334,-325.25552,-84.330472)"><g
       id="g5"
       style="fill:#f6f6f6;fill-opacity:1"><g
         id="g5044"
         style="fill:#f6f6f6;fill-opacity:1"><path
           d="m 101.852,258.562 h -1.485 v 4.172 h 1.485 c 1.156,0 2.105,-0.91 2.105,-2.066 0,-1.156 -0.949,-2.106 -2.105,-2.106 m -0.497,-10.121 h -0.988 v 4.09 h 0.988 c 1.118,0 2.024,-0.906 2.024,-2.062 0,-1.117 -0.906,-2.028 -2.024,-2.028 m 2.395,21.313 H 91.984 v -28.289 h 11.106 c 4.625,0 8.422,3.801 8.422,8.426 0,2.351 -0.95,4.129 -2.477,5.367 1.942,1.238 3.219,3.304 3.219,5.988 0,4.707 -3.797,8.508 -8.504,8.508"
           style="fill:#f6f6f6;fill-opacity:1;fill-rule:nonzero;stroke:none"
           transform="matrix(1.3333333,0,0,1.3333333,1106.6667,0)"
           clip-path="url(#clipPath5043)"
           id="path5044" /></g><g
         id="g5046"
         style="fill:#f6f6f6;fill-opacity:1"><path
           d="m 139.984,261.902 c 3.481,0 6.266,-2.832 6.266,-6.269 0,-3.485 -2.785,-6.317 -6.266,-6.317 -3.484,0 -6.269,2.832 -6.269,6.317 0,3.437 2.785,6.269 6.269,6.269 m 0,10.266 c -9.148,0 -16.578,-7.383 -16.578,-16.535 0,-9.153 7.43,-16.586 16.578,-16.586 9.145,0 16.578,7.433 16.578,16.586 0,9.152 -7.433,16.535 -16.578,16.535"
           style="fill:#f6f6f6;fill-opacity:1;fill-rule:nonzero;stroke:none"
           transform="matrix(1.3333333,0,0,1.3333333,1106.6667,0)"
           clip-path="url(#clipPath5045)"
           id="path5046" /></g><g
         id="g5048"
         style="fill:#f6f6f6;fill-opacity:1"><path
           d="m 176.051,259.141 v 10.613 h -8.379 V 240.68 l 11.969,11.398 v -10.613 h 8.382 v 29.074 z"
           style="fill:#f6f6f6;fill-opacity:1;fill-rule:nonzero;stroke:none"
           transform="matrix(1.3333333,0,0,1.3333333,1106.6667,0)"
           clip-path="url(#clipPath5047)"
           id="path5048" /></g><g
         id="g5050"
         style="fill:#f6f6f6;fill-opacity:1"><path
           d="m 215.711,261.902 c 3.48,0 6.269,-2.832 6.269,-6.269 0,-3.485 -2.789,-6.317 -6.269,-6.317 -3.484,0 -6.27,2.832 -6.27,6.317 0,3.437 2.786,6.269 6.27,6.269 m 0,10.266 c -9.149,0 -16.578,-7.383 -16.578,-16.535 0,-9.153 7.429,-16.586 16.578,-16.586 9.144,0 16.578,7.433 16.578,16.586 0,9.152 -7.434,16.535 -16.578,16.535"
           style="fill:#f6f6f6;fill-opacity:1;fill-rule:nonzero;stroke:none"
           transform="matrix(1.3333333,0,0,1.3333333,1106.6667,0)"
           clip-path="url(#clipPath5049)"
           id="path5050" /></g><g
         id="g5052"
         style="fill:#f6f6f6;fill-opacity:1"><path
           d="m 253.305,258.562 h -1.485 v 4.172 h 1.485 c 1.156,0 2.105,-0.91 2.105,-2.066 0,-1.156 -0.949,-2.106 -2.105,-2.106 m -0.496,-10.121 h -0.989 v 4.09 h 0.989 c 1.117,0 2.023,-0.906 2.023,-2.062 0,-1.117 -0.906,-2.028 -2.023,-2.028 m 2.394,21.313 h -11.762 v -28.289 h 11.102 c 4.625,0 8.422,3.801 8.422,8.426 0,2.351 -0.949,4.129 -2.477,5.367 1.942,1.238 3.219,3.304 3.219,5.988 0,4.707 -3.797,8.508 -8.504,8.508"
           style="fill:#f6f6f6;fill-opacity:1;fill-rule:nonzero;stroke:none"
           transform="matrix(1.3333333,0,0,1.3333333,1106.6667,0)"
           clip-path="url(#clipPath5051)"
           id="path5052" /></g><g
         id="g5054"
         style="fill:#f6f6f6;fill-opacity:1"><path
           d="m 291.438,261.902 c 3.48,0 6.269,-2.832 6.269,-6.269 0,-3.485 -2.789,-6.317 -6.269,-6.317 -3.485,0 -6.27,2.832 -6.27,6.317 0,3.437 2.785,6.269 6.27,6.269 m 0,10.266 c -9.149,0 -16.579,-7.383 -16.579,-16.535 0,-9.153 7.43,-16.586 16.579,-16.586 9.148,0 16.578,7.433 16.578,16.586 0,9.152 -7.43,16.535 -16.578,16.535"
           style="fill:#f6f6f6;fill-opacity:1;fill-rule:nonzero;stroke:none"
           transform="matrix(1.3333333,0,0,1.3333333,1106.6667,0)"
           clip-path="url(#clipPath5053)"
           id="path5054" /></g><g
         id="g5056"
         style="fill:#f6f6f6;fill-opacity:1"><path
           d="m 120.746,288.602 h -0.449 v 1.253 h 0.449 c 0.348,0 0.633,-0.273 0.633,-0.621 0,-0.347 -0.285,-0.632 -0.633,-0.632 m -0.148,-3.047 h -0.301 v 1.234 h 0.301 c 0.336,0 0.605,-0.277 0.605,-0.625 0,-0.336 -0.269,-0.609 -0.605,-0.609 m 0.718,6.414 h -3.539 v -8.512 h 3.34 c 1.395,0 2.535,1.145 2.535,2.535 0,0.707 -0.285,1.242 -0.746,1.617 0.586,0.371 0.969,0.993 0.969,1.801 0,1.418 -1.145,2.559 -2.559,2.559"
           style="fill:#f6f6f6;fill-opacity:1;fill-rule:nonzero;stroke:none"
           transform="matrix(1.3333333,0,0,1.3333333,1106.6667,0)"
           clip-path="url(#clipPath5055)"
           id="path5056" /></g><g
         id="g5058"
         style="fill:#f6f6f6;fill-opacity:1"><path
           d="m 138.238,288.988 -1.105,2.981 h -2.707 l 3.812,-8.774 3.828,8.774 h -2.711 z"
           style="fill:#f6f6f6;fill-opacity:1;fill-rule:nonzero;stroke:none"
           transform="matrix(1.3333333,0,0,1.3333333,1106.6667,0)"
           clip-path="url(#clipPath5057)"
           id="path5058" /></g><g
         id="g5060"
         style="fill:#f6f6f6;fill-opacity:1"><path
           d="m 156.105,285.855 h -0.472 v 1.864 h 0.472 c 0.508,0 0.934,-0.41 0.934,-0.93 0,-0.512 -0.426,-0.934 -0.934,-0.934 m 1.875,3.317 2.45,2.797 h -3.391 l -1.406,-1.602 v 1.602 h -2.524 v -8.512 h 3.184 c 1.75,0 3.152,1.418 3.152,3.156 0,1.071 -0.593,2.016 -1.465,2.559"
           style="fill:#f6f6f6;fill-opacity:1;fill-rule:nonzero;stroke:none"
           transform="matrix(1.3333333,0,0,1.3333333,1106.6667,0)"
           clip-path="url(#clipPath5059)"
           id="path5060" /></g><g
         id="g5062"
         style="fill:#f6f6f6;fill-opacity:1"><path
           d="m 188.012,289.52 -0.387,-0.895 c -0.039,0 -0.074,-0.012 -0.113,-0.012 -0.321,0 -0.582,0.262 -0.582,0.586 0,0.321 0.261,0.582 0.582,0.582 0.199,0 0.386,-0.097 0.5,-0.261 m 1.75,-2.274 0.261,-0.445 h 2.735 l -1.817,3.168 0.871,2 h -2.746 l -0.101,-0.211 c -0.422,0.238 -0.93,0.387 -1.453,0.387 -1.625,0 -2.942,-1.317 -2.942,-2.946 0,-1.332 0.879,-2.449 2.086,-2.82 l -1.254,-2.922 h 5.203 v 2.535 h -1.375 z"
           style="fill:#f6f6f6;fill-opacity:1;fill-rule:nonzero;stroke:none"
           transform="matrix(1.3333333,0,0,1.3333333,1106.6667,0)"
           clip-path="url(#clipPath5061)"
           id="path5062" /></g><g
         id="g5064"
         style="fill:#f6f6f6;fill-opacity:1"><path
           d="m 227.855,291.969 h -2.71 l -1.118,-2.981 -1.105,2.981 h -1.141 l -1.117,-2.981 -1.109,2.981 h -2.707 l 3.816,-8.774 1.688,3.879 1.675,-3.879 z"
           style="fill:#f6f6f6;fill-opacity:1;fill-rule:nonzero;stroke:none"
           transform="matrix(1.3333333,0,0,1.3333333,1106.6667,0)"
           clip-path="url(#clipPath5063)"
           id="path5064" /></g><g
         id="g5066"
         style="fill:#f6f6f6;fill-opacity:1"><path
           d="m 242.613,289.398 c 0.934,0 1.68,-0.761 1.68,-1.679 0,-0.93 -0.746,-1.692 -1.68,-1.692 -0.929,0 -1.675,0.762 -1.675,1.692 0,0.918 0.746,1.679 1.675,1.679 m 0,2.747 c -2.445,0 -4.433,-1.977 -4.433,-4.426 0,-2.449 1.988,-4.438 4.433,-4.438 2.449,0 4.438,1.989 4.438,4.438 0,2.449 -1.989,4.426 -4.438,4.426"
           style="fill:#f6f6f6;fill-opacity:1;fill-rule:nonzero;stroke:none"
           transform="matrix(1.3333333,0,0,1.3333333,1106.6667,0)"
           clip-path="url(#clipPath5065)"
           id="path5066" /></g><g
         id="g5068"
         style="fill:#f6f6f6;fill-opacity:1"><path
           d="m 261.688,285.855 h -0.473 v 1.864 h 0.473 c 0.507,0 0.929,-0.41 0.929,-0.93 0,-0.512 -0.422,-0.934 -0.929,-0.934 m 1.874,3.317 2.446,2.797 h -3.391 l -1.402,-1.602 v 1.602 h -2.524 v -8.512 h 3.18 c 1.754,0 3.156,1.418 3.156,3.156 0,1.071 -0.597,2.016 -1.465,2.559"
           style="fill:#f6f6f6;fill-opacity:1;fill-rule:nonzero;stroke:none"
           transform="matrix(1.3333333,0,0,1.3333333,1106.6667,0)"
           clip-path="url(#clipPath5067)"
           id="path5068" /></g><g
         id="g5070"
         style="fill:#f6f6f6;fill-opacity:1"><path
           d="m 276.855,291.969 v -8.512 h 5.368 v 2.535 h -2.844 v 1.031 h 2.844 v 1.329 h -2.844 v 1.093 h 2.844 v 2.524 z"
           style="fill:#f6f6f6;fill-opacity:1;fill-rule:nonzero;stroke:none"
           transform="matrix(1.3333333,0,0,1.3333333,1106.6667,0)"
           clip-path="url(#clipPath5069)"
           id="path5070" /></g></g></g></svg>
